<?xml version="1.0" encoding="UTF-8" standalone="no"?>
<!-- Created with Inkscape (http://www.inkscape.org/) -->

<svg
   width="200mm"
   height="41mm"
   viewBox="0 0 200 41"
   version="1.1"
   id="svg1"
   xml:space="preserve"
   inkscape:version="1.4.4 (dcaf3e7d9e, 2026-05-05)"
   sodipodi:docname="logo.svg"
   inkscape:export-filename="logo_80.png"
   inkscape:export-xdpi="49.560001"
   inkscape:export-ydpi="49.560001"
   xmlns:inkscape="http://www.inkscape.org/namespaces/inkscape"
   xmlns:sodipodi="http://sodipodi.sourceforge.net/DTD/sodipodi-0.dtd"
   xmlns="http://www.w3.org/2000/svg"
   xmlns:svg="http://www.w3.org/2000/svg"><sodipodi:namedview
     id="namedview1"
     pagecolor="#ffffff"
     bordercolor="#666666"
     borderopacity="1.0"
     inkscape:showpageshadow="2"
     inkscape:pageopacity="0.0"
     inkscape:pagecheckerboard="0"
     inkscape:deskcolor="#d1d1d1"
     inkscape:document-units="mm"
     showguides="true"
     inkscape:zoom="0.89619809"
     inkscape:cx="292.90399"
     inkscape:cy="204.75384"
     inkscape:window-width="1276"
     inkscape:window-height="1542"
     inkscape:window-x="0"
     inkscape:window-y="0"
     inkscape:window-maximized="0"
     inkscape:current-layer="layer1" /><defs
     id="defs1" /><g
     inkscape:label="Layer 1"
     inkscape:groupmode="layer"
     id="layer1"><g
       id="g22"
       transform="matrix(1.3723135,0,0,1.3723135,-46.207163,-153.43882)"><g
         id="g21"><path
           style="fill:#1e6170;fill-opacity:1;stroke:none;stroke-width:0.264583px;stroke-linecap:butt;stroke-linejoin:miter;stroke-opacity:1"
           d="m 35.718236,113.82742 7.599082,10.27931 c 1.077687,1.55529 1.077687,3.79295 0,5.42771 l -7.599082,10.36431 h 5.250961 c 1.306291,0 2.724766,-0.76789 3.444102,-1.54428 l 6.73245,-9.34193 c 0.911197,-1.34249 0.927536,-3.14439 -0.05219,-4.59268 l -6.680261,-8.82003 c -0.666328,-0.72924 -2.02431,-1.77241 -3.444101,-1.77241 z"
           id="path10"
           sodipodi:nodetypes="ccccccccccc" /><path
           style="fill:#1e6170;fill-opacity:1;stroke:none;stroke-width:0.264583px;stroke-linecap:butt;stroke-linejoin:miter;stroke-opacity:1"
           d="m 46.80433,113.82742 7.599082,10.27931 c 1.077687,1.55529 1.077687,3.79295 0,5.42771 l -7.599082,10.36431 h 5.250961 c 1.306291,0 2.724766,-0.76789 3.444102,-1.54428 l 6.73245,-9.34193 c 0.911197,-1.34249 0.927536,-3.14439 -0.05219,-4.59268 l -6.680261,-8.82003 c -0.666328,-0.72924 -2.02431,-1.77241 -3.444101,-1.77241 z"
           id="path16"
           sodipodi:nodetypes="ccccccccccc" /><path
           style="fill:#45e5cd;fill-opacity:1;stroke:none;stroke-width:0.264583px;stroke-linecap:butt;stroke-linejoin:miter;stroke-opacity:1"
           d="m 78.763407,124.43425 v 4.93477 l -8.406736,3.62809 V 120.6747 Z"
           id="path21" /><path
           style="fill:#1e6170;fill-opacity:1;stroke:none;stroke-width:0.264583px;stroke-linecap:butt;stroke-linejoin:miter;stroke-opacity:1"
           d="m 57.916831,113.82742 7.599082,10.27931 c 1.077687,1.55529 1.077687,3.79295 0,5.42771 l -7.599082,10.36431 h 5.250961 c 1.306291,0 2.724766,-0.76789 3.444102,-1.54428 l 6.73245,-9.34193 c 0.911197,-1.34249 0.927536,-3.14439 -0.05219,-4.59268 l -6.680261,-8.82003 c -0.666328,-0.72924 -2.02431,-1.77241 -3.444101,-1.77241 z"
           id="path17"
           sodipodi:nodetypes="ccccccccccc" /></g><text
         xml:space="preserve"
         style="font-style:normal;font-variant:normal;font-weight:bold;font-stretch:normal;font-size:25.4px;line-height:1.25;font-family:padmaa;-inkscape-font-specification:'padmaa, Bold';font-variant-ligatures:normal;font-variant-caps:normal;font-variant-numeric:normal;font-variant-east-asian:normal;fill:#1e6170;fill-opacity:1;stroke-width:0.264583"
         x="83.377068"
         y="134.05544"
         id="text21"><tspan
           sodipodi:role="line"
           id="tspan21"
           style="font-style:normal;font-variant:normal;font-weight:bold;font-stretch:normal;font-size:25.4px;font-family:padmaa;-inkscape-font-specification:'padmaa, Bold';font-variant-ligatures:normal;font-variant-caps:normal;font-variant-numeric:normal;font-variant-east-asian:normal;fill:#1e6170;fill-opacity:1;stroke-width:0.264583"
           x="83.377068"
           y="134.05544">ingesto</tspan></text></g></g></svg>
